<svg id="svg" fill="#000000" stroke="#000000" width="35px" height="35px" viewBox="144 144 512 512" xmlns="http://www.w3.org/2000/svg">
    <g id="IconSvg_bgCarrier" stroke-width="0"></g>
    <g id="IconSvg_tracerCarrier" stroke-linecap="round" stroke-linejoin="round" stroke="#CCCCCC"></g>
     <g id="IconSvg_iconCarrier">
      <g xmlns="http://www.w3.org/2000/svg">
  <path d="m450.85 536.81h-101.71c-5.625 0-10.82 3.0039-13.633 7.875s-2.8125 10.871 0 15.742c2.8125 4.8711 8.0078 7.8711 13.633 7.8711h101.71c5.625 0 10.824-3 13.637-7.8711 2.8125-4.8711 2.8125-10.871 0-15.742s-8.0117-7.875-13.637-7.875z"></path>
  <path d="m450.85 570.82h-101.71c-5.625 0-10.82 3-13.633 7.875-2.8125 4.8711-2.8125 10.871 0 15.742s8.0078 7.8711 13.633 7.8711h101.71c5.625 0 10.824-3 13.637-7.8711s2.8125-10.871 0-15.742c-2.8125-4.875-8.0117-7.875-13.637-7.875z"></path>
  <path d="m433.85 604.67h-67.699c-5.625 0-10.82 3-13.633 7.8711-2.8125 4.8711-2.8125 10.871 0 15.746 2.8125 4.8711 8.0078 7.8711 13.633 7.8711h67.699c5.625 0 10.824-3 13.637-7.8711 2.8125-4.875 2.8125-10.875 0-15.746-2.8125-4.8711-8.0117-7.8711-13.637-7.8711z"></path>
  <path d="m430.07 346.62s-15.742 1.2578-30.07 1.2578-29.914-1.2578-30.07-1.2578h-0.003907c-5.0898-0.44141-10.078 1.6133-13.379 5.5117-3.3008 3.8633-4.5312 9.082-3.3086 14.012 0 0 5.9844 23.457 9.6055 47.23 3.6211 23.773 5.668 50.223 5.668 50.539 0.125 4.1758 1.9023 8.1328 4.9453 10.996 3.0391 2.8633 7.0938 4.4023 11.27 4.2773 4.1758-0.125 8.1289-1.9062 10.996-4.9453 2.8633-3.043 4.4023-7.0977 4.2773-11.27-0.019531 3.9141 1.418 7.6992 4.0391 10.609 2.6211 2.9102 6.2305 4.7422 10.129 5.1328h1.5742c3.918 0.019531 7.6992-1.4219 10.613-4.043 2.9102-2.6172 4.7383-6.2305 5.1328-10.125 0 0 2.3633-24.562 6.4531-51.012 3.4648-22.043 8.8164-47.23 8.9727-47.23v-0.003906c1.0352-4.8789-0.30859-9.9609-3.6211-13.695-3.168-4.0273-8.1055-6.2617-13.223-5.9844zm-23.301 62.031c-4.25 27.395-6.6133 51.797-6.7695 52.742 0-0.94531-2.2031-26.609-6.1406-53.371-1.5742-10.391-3.4648-20.625-5.3516-29.125h23.457c-1.5742 9.1289-3.6211 19.68-5.1953 29.754z"></path>
  <path d="m510.21 208.23c-30.543-30.125-72.227-46.207-115.09-44.398-41.746 1.375-81.238 19.281-109.78 49.781-28.539 30.5-43.793 71.09-42.395 112.84 1.3945 41.746 19.324 81.23 49.84 109.75 18.418 17.48 28.742 41.832 28.496 67.227-0.023438 5.6328 2.0664 11.07 5.8555 15.238 3.7891 4.168 9.0039 6.7617 14.613 7.2734 19.328 2.3672 38.777 3.6289 58.254 3.7812 19.051-0.1875 38.082-1.4492 56.992-3.7812 5.8086-0.27734 11.289-2.7656 15.328-6.9492 4.0352-4.1836 6.3242-9.75 6.3984-15.562 0.66406-26.5 12.02-51.602 31.488-69.59 30.441-29.637 47.613-70.32 47.613-112.8 0-42.488-17.172-83.168-47.613-112.81zm-22.199 202.94c-23.582 22.168-38.109 52.293-40.777 84.547-9.7617 0.94531-28.812 2.6758-47.23 2.6758-15.781-0.10547-31.543-0.99609-47.234-2.6758-1.8516-31.336-15.594-60.785-38.414-82.34-25.766-23.688-40.391-57.109-40.305-92.105-0.015625-32.734 12.711-64.188 35.488-87.699 22.773-23.508 53.809-37.23 86.527-38.254 33.93-0.97266 66.816 11.785 91.207 35.391 24.395 23.605 38.227 56.055 38.363 89.996 0.14063 33.945-13.426 66.504-37.625 90.309z"></path>
 </g>

      </g>
      </svg>